<svg width="46" height="58" viewBox="0 0 46 58" fill="none" xmlns="http://www.w3.org/2000/svg">
<g clip-path="url(#clip0_494_989)">
<path d="M44.0837 7.25086C42.2482 8.88327 40.216 10.1318 38.0653 10.9484C36.911 9.27485 35.3769 8.0887 33.6705 7.55035C31.9641 7.012 30.1677 7.14742 28.5243 7.93829C26.8809 8.72917 25.4698 10.1373 24.4819 11.9723C23.4939 13.8074 22.9767 15.9807 23.0003 18.1984V20.615C19.632 20.7252 16.2944 19.7832 13.2848 17.8732C10.2751 15.9631 7.68677 13.1442 5.75033 9.66753C5.75033 9.66753 -1.91634 31.4175 15.3337 41.0842C11.3863 44.4626 6.68404 46.1566 1.91699 45.9175C19.167 58.0009 40.2503 45.9175 40.2503 18.1259C40.2486 17.4527 40.1972 16.7812 40.097 16.12C42.0531 13.6876 43.4336 10.6166 44.0837 7.25086Z" stroke="#1E1E1E" stroke-width="4" stroke-linecap="round" stroke-linejoin="round"/>
</g>
<defs>
<clipPath id="clip0_494_989">
<rect width="46" height="58" fill="white"/>
</clipPath>
</defs>
</svg>
