<svg width="47" height="59" viewBox="0 0 47 59" fill="none" xmlns="http://www.w3.org/2000/svg">
<g clip-path="url(#clip0_494_737)">
<path d="M44.5827 7.3954C42.7473 9.0278 40.7151 10.2763 38.5643 11.0929C37.41 9.41938 35.8759 8.23323 34.1695 7.69488C32.4631 7.15653 30.6667 7.29195 29.0233 8.08282C27.38 8.8737 25.9689 10.2819 24.9809 12.1169C23.9929 13.9519 23.4758 16.1252 23.4993 18.3429V20.7596C20.1311 20.8697 16.7935 19.9278 13.7838 18.0177C10.7741 16.1077 8.18579 13.2888 6.24935 9.81206C6.24935 9.81206 -1.41732 31.5621 15.8327 41.2287C11.8854 44.6071 7.18307 46.3011 2.41602 46.0621C19.666 58.1454 40.7493 46.0621 40.7493 18.2704C40.7476 17.5972 40.6962 16.9257 40.596 16.2646C42.5522 13.8322 43.9326 10.7611 44.5827 7.3954Z" stroke="#1E1E1E" stroke-width="4" stroke-linecap="round" stroke-linejoin="round"/>
</g>
<defs>
<clipPath id="clip0_494_737">
<rect width="46" height="58" fill="white" transform="translate(0.5 0.144531)"/>
</clipPath>
</defs>
</svg>
