<svg width="57" height="77" viewBox="0 0 57 77" fill="none" xmlns="http://www.w3.org/2000/svg">
<g clip-path="url(#clip0_494_708)">
<path d="M53.0934 20.4739C52.8162 18.971 52.2517 17.594 51.4569 16.482C50.6621 15.37 49.6651 14.5623 48.5667 14.1405C44.5534 12.8105 28.5 12.8105 28.5 12.8105C28.5 12.8105 12.4467 12.8105 8.43337 14.2672C7.33494 14.689 6.33798 15.4966 5.54317 16.6087C4.74837 17.7207 4.18387 19.0977 3.9067 20.6005C3.1722 26.1281 2.81292 31.7355 2.83337 37.3522C2.80718 43.0112 3.16649 48.6613 3.9067 54.2305C4.21227 55.6867 4.78941 57.0113 5.58237 58.0764C6.37532 59.1415 7.35728 59.911 8.43337 60.3105C12.4467 61.7672 28.5 61.7672 28.5 61.7672C28.5 61.7672 44.5534 61.7672 48.5667 60.3105C49.6651 59.8888 50.6621 59.0811 51.4569 57.9691C52.2517 56.8571 52.8162 55.4801 53.0934 53.9772C53.8222 48.4912 54.1815 42.9266 54.1667 37.3522C54.1929 31.6932 53.8336 26.0431 53.0934 20.4739Z" stroke="#1E1E1E" stroke-width="4" stroke-linecap="round" stroke-linejoin="round"/>
<path d="M23.25 47.7072L36.6667 37.3522L23.25 26.9972V47.7072Z" stroke="#1E1E1E" stroke-width="4" stroke-linecap="round" stroke-linejoin="round"/>
</g>
<defs>
<clipPath id="clip0_494_708">
<rect width="56" height="76" fill="white" transform="translate(0.5 0.144531)"/>
</clipPath>
</defs>
</svg>
