<svg width="46" height="58" viewBox="0 0 46 58" fill="none" xmlns="http://www.w3.org/2000/svg">
<g clip-path="url(#clip0_494_1025)">
<path d="M44.0827 7.25086C42.2473 8.88327 40.2151 10.1318 38.0643 10.9484C36.91 9.27485 35.3759 8.0887 33.6695 7.55035C31.9631 7.012 30.1667 7.14742 28.5233 7.93829C26.88 8.72917 25.4689 10.1373 24.4809 11.9723C23.4929 13.8074 22.9758 15.9807 22.9993 18.1984V20.615C19.6311 20.7252 16.2935 19.7832 13.2838 17.8732C10.2741 15.9631 7.68579 13.1442 5.74935 9.66753C5.74935 9.66753 -1.91732 31.4175 15.3327 41.0842C11.3854 44.4626 6.68307 46.1566 1.91602 45.9175C19.166 58.0009 40.2493 45.9175 40.2493 18.1259C40.2476 17.4527 40.1962 16.7812 40.096 16.12C42.0522 13.6876 43.4326 10.6166 44.0827 7.25086Z" stroke="#1E1E1E" stroke-width="4" stroke-linecap="round" stroke-linejoin="round"/>
</g>
<defs>
<clipPath id="clip0_494_1025">
<rect width="46" height="58" fill="white"/>
</clipPath>
</defs>
</svg>
