<svg width="56" height="76" viewBox="0 0 56 76" fill="none" xmlns="http://www.w3.org/2000/svg">
<path d="M52.5934 20.3293C52.3162 18.8265 51.7517 17.4495 50.9569 16.3375C50.1621 15.2254 49.1651 14.4178 48.0667 13.996C44.0534 12.666 28 12.666 28 12.666C28 12.666 11.9467 12.666 7.93337 14.1227C6.83494 14.5444 5.83798 15.3521 5.04317 16.4641C4.24837 17.5762 3.68387 18.9531 3.4067 20.456C2.6722 25.9836 2.31292 31.591 2.33337 37.2077C2.30718 42.8667 2.66649 48.5168 3.4067 54.086C3.71227 55.5422 4.28941 56.8668 5.08237 57.9319C5.87532 58.9969 6.85728 59.7664 7.93337 60.166C11.9467 61.6227 28 61.6227 28 61.6227C28 61.6227 44.0534 61.6227 48.0667 60.166C49.1651 59.7443 50.1621 58.9366 50.9569 57.8246C51.7517 56.7125 52.3162 55.3355 52.5934 53.8327C53.3222 48.3467 53.6815 42.7821 53.6667 37.2077C53.6929 31.5487 53.3336 25.8986 52.5934 20.3293Z" stroke="#1E1E1E" stroke-width="4" stroke-linecap="round" stroke-linejoin="round"/>
<path d="M22.75 47.5627L36.1667 37.2077L22.75 26.8527V47.5627Z" stroke="#1E1E1E" stroke-width="4" stroke-linecap="round" stroke-linejoin="round"/>
</svg>
